<?xml version="1.0" encoding="utf-8"?>
<!-- Generator: Adobe Illustrator 24.3.0, SVG Export Plug-In . SVG Version: 6.00 Build 0)  -->
<svg version="1.1" id="Layer_1" xmlns="http://www.w3.org/2000/svg" xmlns:xlink="http://www.w3.org/1999/xlink" x="0px" y="0px"
	 viewBox="0 0 1000 1144.1" style="enable-background:new 0 0 1000 1144.1;" xml:space="preserve">
<style type="text/css">
	.st0{opacity:0.65;fill:url(#SVGID_1_);}
	.st1{fill:url(#SVGID_2_);}
	.st2{fill:url(#SVGID_3_);}
	.st3{fill:url(#SVGID_4_);}
	.st4{fill:url(#SVGID_5_);}
	.st5{fill:none;stroke:#79F2BB;stroke-width:27.145;stroke-miterlimit:10;}
	.st6{display:none;}
	.st7{display:inline;fill:#FFFFFF;}
	.st8{fill:#FFFFFF;}
	.st9{fill:url(#SVGID_6_);}
	.st10{fill:url(#SVGID_7_);}
	.st11{opacity:0.5;fill:url(#SVGID_8_);}
	.st12{opacity:0.5;fill:url(#SVGID_9_);}
</style>
<g>
	<g>
		<radialGradient id="SVGID_1_" cx="499.9995" cy="572.0715" r="619.7858" gradientUnits="userSpaceOnUse">
			<stop  offset="0" style="stop-color:#41C89A"/>
			<stop  offset="0.995" style="stop-color:#42C99B;stop-opacity:0"/>
		</radialGradient>
		<circle class="st0" cx="500" cy="572.1" r="498.8"/>
		<radialGradient id="SVGID_2_" cx="499.9995" cy="572.0715" r="587.9976" gradientUnits="userSpaceOnUse">
			<stop  offset="0" style="stop-color:#55D6A2"/>
			<stop  offset="0.995" style="stop-color:#38C297;stop-opacity:0"/>
		</radialGradient>
		<circle class="st1" cx="500" cy="572.1" r="411.7"/>
	</g>
	<g>
		<linearGradient id="SVGID_3_" gradientUnits="userSpaceOnUse" x1="615.8541" y1="572.0718" x2="1195.4742" y2="572.0718">
			<stop  offset="0" style="stop-color:#20978D"/>
			<stop  offset="0.995" style="stop-color:#33BE95"/>
		</linearGradient>
		<circle class="st2" cx="513.3" cy="572.1" r="325.3"/>
		<linearGradient id="SVGID_4_" gradientUnits="userSpaceOnUse" x1="730.2847" y1="815.6517" x2="224.8035" y2="310.1704">
			<stop  offset="0" style="stop-color:#20B18D"/>
			<stop  offset="0.995" style="stop-color:#66E2A9"/>
		</linearGradient>
		<circle class="st3" cx="486.7" cy="572.1" r="325.3"/>
		<linearGradient id="SVGID_5_" gradientUnits="userSpaceOnUse" x1="328.4295" y1="436.2339" x2="712.5646" y2="765.9126">
			<stop  offset="0" style="stop-color:#20B18D"/>
			<stop  offset="0.995" style="stop-color:#66E2A9"/>
		</linearGradient>
		<circle class="st4" cx="486.7" cy="572.1" r="273.8"/>
		<circle class="st5" cx="486.7" cy="572.1" r="273.8"/>
	</g>
	<g id="Layer_2_1_">
		
			<image style="overflow:visible;opacity:0.5;" width="495" height="446" xlink:href="13B8603F.png"  transform="matrix(1 0 0 1 240.9848 346.1277)">
		</image>
		<g>
			<g>
				<g id="Layer_1-2_19_" class="st6">
					<path class="st7" d="M529,462c10.7,0,19.4-8.9,19.4-19.7c0-10.9-8.7-19.7-19.4-19.7c-10.7,0.1-19.4,8.9-19.4,19.8
						S518.3,462,529,462z M534.7,513.3c9.2-0.1,16.5-7.6,16.5-16.7l0,0c0-9.2-7.4-16.7-16.5-16.7c-9.1,0-16.5,7.5-16.5,16.7
						C518.3,505.8,525.6,513.3,534.7,513.3z M579.9,519.8c9.1,0,16.4-7.5,16.4-16.7c0-9.2-7.4-16.7-16.4-16.7
						c-9.1,0-16.4,7.5-16.4,16.7C563.5,512.3,570.9,519.8,579.9,519.8z M574.5,563.7c7.8,0,14-6.4,14-14.2c0-7.9-6.3-14.2-14-14.2
						c-7.8,0-14,6.4-14,14.2C560.5,557.3,566.7,563.7,574.5,563.7z M610.7,577.9c7.8,0,14.1-6.4,14.1-14.3c0-7.9-6.3-14.3-14.1-14.3
						c-7.9,0.1-14.2,6.5-14.1,14.3c0,0,0,0,0,0l0,0C596.5,571.5,602.9,577.9,610.7,577.9z M529,557.7c8,0,14.4-6.6,14.4-14.6
						c0,0,0,0,0,0l0,0v0c0-8.1-6.4-14.6-14.4-14.6s-14.4,6.5-14.4,14.6C514.6,551.2,521.1,557.7,529,557.7z M516,592.6
						c6.7,0,12.1-5.5,12.1-12.2c0.1-6.7-5.3-12.2-12-12.2h0c-6.7,0-12.1,5.5-12.1,12.2C503.9,587.1,509.3,592.6,516,592.6z
						 M561.2,598.8c6.7,0,12-5.5,12-12.1v0l0,0v0c0-6.7-5.3-12.2-12-12.2c-6.6,0-12,5.4-12,12.2c-0.1,6.6,5.2,12.1,11.8,12.2
						c0,0,0,0,0,0H561.2L561.2,598.8z M597.3,613c6.7,0,12.1-5.5,12.1-12.3s-5.4-12.3-12.1-12.3c-6.7,0-12.1,5.5-12.1,12.3
						C585.2,607.4,590.6,612.9,597.3,613L597.3,613z M579.5,639.4c5.6,0,10.2-4.7,10.2-10.3c0-5.7-4.6-10.3-10.2-10.3
						c-5.6,0-10.2,4.7-10.2,10.3C569.3,634.8,573.9,639.4,579.5,639.4z M543.3,625.5c5.7,0,10.4-4.7,10.4-10.6s-4.7-10.6-10.4-10.6
						c-5.8,0-10.4,4.7-10.4,10.6S537.5,625.5,543.3,625.5z M498.1,619c5.8-0.1,10.4-4.9,10.3-10.6c-0.1-5.7-4.6-10.2-10.3-10.3h0
						c-5.8,0.1-10.4,4.9-10.3,10.6C487.8,614.4,492.4,618.9,498.1,619L498.1,619z M523.2,643.9c5,0,9-4.1,9-9.1c0-5-3.9-9-8.9-9.1
						h-0.1c-5,0-9,4.1-9,9.1C514.1,639.8,518.1,643.9,523.2,643.9L523.2,643.9z M559.4,658.1c5,0,9.1-4.1,9.1-9.2
						c0-5.1-4-9.2-9.1-9.2c-5.1,0-9.2,4.1-9.2,9.2C550.2,654,554.3,658.1,559.4,658.1z M539,668.7c3.9,0,7.2-3.3,7.2-7.3
						c0-4-3.2-7.2-7.2-7.3c-3.9,0-7.2,3.3-7.2,7.3C531.8,665.4,535,668.7,539,668.7z M519.7,674.4c3.6,0,6.5-3,6.5-6.6v0v0
						c0-3.7-2.9-6.6-6.5-6.6c-3.6,0-6.5,3-6.5,6.6l0,0v0c-0.1,3.6,2.8,6.5,6.4,6.6L519.7,674.4z M502.7,655.5c4.3,0,7.7-3.5,7.7-7.8
						c0-4.3-3.5-7.8-7.7-7.8c-4.3,0-7.7,3.5-7.7,7.8C495,652,498.5,655.5,502.7,655.5z M477.9,637.6c4.9,0,9-4,9-9.1
						c0-5-4-9.1-9-9.1c-4.9,0-9,4-9,9.1C468.9,633.5,472.9,637.6,477.9,637.6z M551.6,751.5c10.7,0,19.3-8.8,19.3-19.6
						s-8.7-19.6-19.3-19.6c-10.7,0-19.3,8.8-19.3,19.6S540.9,751.5,551.6,751.5L551.6,751.5z M502.5,726.7c8.9,0,16.1-7.3,16.1-16.4
						c0-9-7.2-16.4-16.1-16.4c-8.9,0-16.1,7.3-16.1,16.4C486.3,719.4,493.5,726.7,502.5,726.7z M474.4,762.6c9,0,16.3-7.4,16.3-16.5
						c0-9.1-7.3-16.5-16.3-16.5c-9,0-16.3,7.4-16.3,16.5C458.1,755.2,465.3,762.6,474.4,762.6L474.4,762.6z M465.9,696.4
						c7.8-0.1,14.2-6.5,14.1-14.3v0l0,0c0.1-7.8-6.3-14.2-14.1-14.3c0,0,0,0,0,0l0,0c-7.8,0.1-14.1,6.5-14.1,14.3v0l0,0
						C451.9,690,458.2,696.4,465.9,696.4L465.9,696.4z M438,732.8c7.8,0,14-6.4,14-14.2c0-7.9-6.3-14.2-14-14.2
						c-7.8,0-14,6.4-14,14.2C423.8,726.4,430.1,732.7,438,732.8L438,732.8z M407.8,757.6c7.8,0,14-6.4,14-14.2
						c0-7.9-6.3-14.2-14-14.2c-7.8,0-14,6.4-14,14.2C393.8,751.2,400.1,757.6,407.8,757.6L407.8,757.6z M382.7,725.4
						c6.6-0.1,12-5.5,12-12.1c0-6.7-5.3-12.1-12-12.1c-6.7,0.1-12,5.6-11.9,12.3C370.8,720,376.1,725.3,382.7,725.4z M412.9,700.5
						c6.6,0,12-5.5,12-12.1c0-6.7-5.3-12.1-12-12.1c-6.7,0.1-12,5.6-12,12.3C401,695.1,406.3,700.4,412.9,700.5L412.9,700.5z
						 M441.1,664.1c6.7,0,12-5.5,12-12.1c0,0,0,0,0,0l0,0v0c0-6.7-5.3-12.2-12-12.2c-6.7,0-12,5.5-12,12.1c0,0,0,0,0,0l0,0v0
						C429.1,658.6,434.5,664.1,441.1,664.1z M398,669.1c5.7,0,10.4-4.7,10.4-10.5c0-5.8-4.7-10.5-10.4-10.5
						c-5.7,0-10.4,4.7-10.4,10.5C387.6,664.4,392.2,669.1,398,669.1z M367.9,693.8c5.7,0,10.3-4.7,10.3-10.4l0,0l0,0v0
						c0.1-5.7-4.5-10.4-10.2-10.4h-0.1c-5.7,0-10.3,4.7-10.3,10.4c0,0,0,0,0,0l0,0v0C357.6,689.1,362.2,693.8,367.9,693.8
						L367.9,693.8L367.9,693.8z M361,664.8c4.9,0,8.9-4.1,8.9-9c0-5-4-9-8.9-9c-4.9,0-8.9,4-8.9,9
						C352.1,660.8,356.1,664.8,361,664.8z M360.7,639.4c4.2,0,7.7-3.5,7.6-7.8c0,0,0,0,0,0l0,0c0-4.3-3.4-7.8-7.6-7.8
						c-4.2,0-7.6,3.5-7.6,7.8C353.1,635.9,356.5,639.4,360.7,639.4z M364.9,618.2c3.6,0,6.5-3,6.5-6.6s-2.9-6.6-6.5-6.6
						c-3.6,0-6.5,3-6.5,6.6S361.3,618.2,364.9,618.2z M390.8,614.7c4.3,0,7.7-3.5,7.7-7.8c0-4.3-3.5-7.8-7.7-7.8
						c-4.3,0-7.7,3.5-7.7,7.8C383.1,611.2,386.5,614.6,390.8,614.7z M419.3,603.6c4.9,0,9-4.1,9-9.1c0-5-3.9-9-8.9-9.1h-0.1
						c-4.9,0-9,4.1-9,9.1C410.3,599.5,414.3,603.6,419.3,603.6C419.2,603.6,419.2,603.6,419.3,603.6L419.3,603.6z M426.1,632.5
						c5.6,0,10.2-4.6,10.2-10.2c0-5.6-4.6-10.2-10.2-10.2c-5.6,0-10.2,4.6-10.2,10.2C415.8,627.9,420.4,632.4,426.1,632.5
						L426.1,632.5z M391.2,640.1c4.9,0,8.9-4,8.9-9.1c0-5-4-9.1-8.9-9.1c-4.9,0-8.9,4.1-8.9,9c0,0,0,0,0,0v0c-0.1,4.9,3.9,9,8.8,9
						c0,0,0,0,0,0L391.2,640.1L391.2,640.1z M292.8,626.7c10.6,0,19.3-8.8,19.3-19.5s-8.7-19.5-19.3-19.5
						c-10.6,0-19.3,8.8-19.3,19.5C273.5,618,282.2,626.7,292.8,626.7L292.8,626.7z M336.6,591.8c9.1,0,16.5-7.5,16.5-16.8
						c0-9.2-7.4-16.8-16.5-16.8c-9.2,0.1-16.6,7.6-16.5,16.7v0C320.1,584.4,327.5,591.8,336.6,591.8L336.6,591.8z M319.5,548.8
						c9.1,0,16.4-7.5,16.4-16.7c0-9.2-7.4-16.7-16.4-16.7c-9.1,0.1-16.5,7.5-16.4,16.6c0,0,0,0,0,0v0
						C303,541.3,310.3,548.7,319.5,548.8L319.5,548.8z M361.7,528.5c7.8,0,14.1-6.4,14.1-14.3c0-7.9-6.3-14.3-14.1-14.3
						c-7.8,0-14.1,6.4-14.1,14.3C347.6,522.1,353.9,528.5,361.7,528.5L361.7,528.5z M378.9,571.4c7.8,0,14.1-6.4,14.1-14.3
						c0-7.9-6.3-14.3-14.1-14.3c-7.8,0-14.1,6.4-14.1,14.3C364.8,564.9,371.1,571.4,378.9,571.4z M417.3,562.5
						c6.7-0.1,12.1-5.5,12-12.2l0,0c0.1-6.6-5.2-12.1-11.8-12.2c-6.6-0.1-12.1,5.2-12.2,11.8c0,0.1,0,0.2,0,0.4l0,0
						C405.2,556.9,410.6,562.4,417.3,562.5L417.3,562.5z M450.5,562.6c5.7,0,10.4-4.7,10.4-10.5c0-5.8-4.7-10.5-10.4-10.5
						c-5.8,0-10.5,4.7-10.5,10.5C440,557.9,444.7,562.6,450.5,562.6L450.5,562.6z M477.9,568.9c4.8,0,8.8-3.9,8.8-8.9
						c0-4.9-3.9-8.9-8.8-8.9c-4.9,0-8.8,4-8.8,8.9C469.2,564.9,473.1,568.9,477.9,568.9z M481.5,536.6c4.2,0,7.6-3.5,7.6-7.7
						c0-4.3-3.4-7.7-7.6-7.7c-4.2,0-7.6,3.5-7.6,7.7C473.8,533.1,477.2,536.6,481.5,536.6z M460.4,526c4.8,0,8.8-4,8.8-8.8
						c0-4.8-4-8.8-8.8-8.8c-4.8,0-8.8,4-8.8,8.8C451.6,522.1,455.5,526,460.4,526L460.4,526z M433.3,519.6c5.7,0,10.3-4.7,10.3-10.4
						c0-5.8-4.6-10.4-10.3-10.4c-5.7,0-10.3,4.7-10.3,10.4C423,514.9,427.6,519.6,433.3,519.6C433.3,519.6,433.3,519.6,433.3,519.6
						L433.3,519.6z M400.2,519.7c6.7,0,12.1-5.5,12.1-12.2c0-6.7-5.4-12.2-12.1-12.2c-6.7,0-12.1,5.5-12.1,12.2
						C388.1,514.1,393.5,519.6,400.2,519.7z M355.6,489.1c7.6,0,13.6-6.2,13.6-13.8c0-7.7-6.1-13.8-13.6-13.8
						c-7.6,0-13.6,6.2-13.6,13.8C342,482.9,348.1,489.1,355.6,489.1z M394,480.7c6.7,0,12.1-5.5,12.1-12.2c0-6.7-5.4-12.2-12.1-12.2
						c-6.7,0-12.1,5.5-12.1,12.2C381.9,475.2,387.3,480.7,394,480.7z M427.1,480.9c5.7,0,10.4-4.7,10.4-10.5s-4.7-10.5-10.4-10.5
						c-5.8,0-10.4,4.7-10.4,10.5v0l0,0v0C416.7,476.1,421.4,480.8,427.1,480.9z M454.4,487.1c4.8,0,8.8-3.9,8.8-8.9
						c0-4.9-3.9-8.9-8.8-8.9c-4.9,0-8.9,4-8.9,8.9C445.5,483.2,449.5,487.1,454.4,487.1z M475.3,498c4.3,0,7.8-3.6,7.8-7.9
						c0-4.4-3.5-7.9-7.8-7.9s-7.8,3.6-7.8,7.9S471,498,475.3,498z M490.6,510.4c3.6,0,6.4-2.9,6.4-6.5c0,0,0,0,0,0l0,0v0
						c0-3.6-2.8-6.5-6.4-6.5c0,0,0,0,0,0h0c-3.6,0-6.4,2.9-6.4,6.5l0,0l0,0v0c-0.1,3.5,2.8,6.5,6.3,6.5
						C490.5,510.4,490.5,510.4,490.6,510.4L490.6,510.4L490.6,510.4z"/>
				</g>
				<g id="Layer_1-2_18_">
					<g>
						<path class="st8" d="M560.6,437.4H392l0,0l46.2,67.4h117.5c9,0,16.4,7.3,16.4,16.4c0,9-7.3,16.4-16.4,16.4H438.1L392,605v0
							h168.6c46.3,0,83.8-37.5,83.8-83.8v0C644.4,474.9,606.8,437.4,560.6,437.4z"/>
						<polygon class="st8" points="473,633.3 378.2,633.3 332,700.8 332,700.8 426.8,700.8 						"/>
						<path class="st8" d="M563.7,633.3h-44.5L473,700.8v0h94.8l17.7-25.9C597.6,657.3,585,633.3,563.7,633.3z"/>
						<linearGradient id="SVGID_6_" gradientUnits="userSpaceOnUse" x1="494.1845" y1="577.6119" x2="462.4847" y2="616.5162">
							<stop  offset="0" style="stop-color:#C8C8C8"/>
							<stop  offset="1" style="stop-color:#C8C8C8;stop-opacity:0"/>
						</linearGradient>
						<path class="st9" d="M438.1,537.6L392,605l0,0h168.6C474.5,592.6,438.1,537.6,438.1,537.6z"/>
						<linearGradient id="SVGID_7_" gradientUnits="userSpaceOnUse" x1="543.1351" y1="524.1207" x2="602.8495" y2="473.9407">
							<stop  offset="0" style="stop-color:#C8C8C8"/>
							<stop  offset="1" style="stop-color:#C8C8C8;stop-opacity:0"/>
						</linearGradient>
						<path class="st10" d="M560,537c16.9,15.6,38.6,28.8,66.3,36.2c11.3-14.3,18.1-32.3,18.1-52v0c0-46.3-37.5-83.8-83.8-83.8
							h-55.7c4.2,17.7,12.5,43,28.3,67.4h22.5c9,0,16.4,7.3,16.4,16.4C572.1,528.7,566.9,535.1,560,537z"/>
						<linearGradient id="SVGID_8_" gradientUnits="userSpaceOnUse" x1="338.462" y1="697.5293" x2="395.4134" y2="670.436">
							<stop  offset="0" style="stop-color:#C8C8C8;stop-opacity:0"/>
							<stop  offset="1" style="stop-color:#C8C8C8"/>
						</linearGradient>
						<path class="st11" d="M332,700.8L332,700.8l94.8,0c-60.5-19.3-48.7-67.4-48.7-67.4L332,700.8z"/>
						<linearGradient id="SVGID_9_" gradientUnits="userSpaceOnUse" x1="481.6537" y1="700.376" x2="525.8877" y2="676.6003">
							<stop  offset="0" style="stop-color:#C8C8C8;stop-opacity:0"/>
							<stop  offset="1" style="stop-color:#C8C8C8"/>
						</linearGradient>
						<path class="st12" d="M519,633.7L473,700.8v0h94.7C510.1,682.4,518.1,637.9,519,633.7z"/>
					</g>
				</g>
			</g>
		</g>
	</g>
</g>
</svg>
